<svg clip-rule="evenodd" fill-rule="evenodd" stroke-linejoin="round" stroke-miterlimit="2" viewBox="0 0 128 128" xmlns="http://www.w3.org/2000/svg"><path d="m17 48.667v-21.523c0-5.590503 4.55363-10.144 10.144-10.144h21.523v-5.95c0-2.1770231 1.77437-3.946 3.946-3.946h23.774c2.171651 0 3.946 1.7689976 3.946 3.946v5.95h21.523c5.5905 0 10.144 4.55363 10.144 10.144v21.523h5.95c2.17702 0 3.946 1.77437 3.946 3.946v23.774c0 2.171651-1.769 3.946-3.946 3.946h-5.95v21.523c0 5.5905-4.55363 10.144-10.144 10.144h-21.523v-5.95c0-2.17702-1.77437-3.946-3.946-3.946h-23.774c-2.171651 0-3.946 1.769-3.946 3.946v5.95h-21.523c-5.590503 0-10.144-4.55363-10.144-10.144v-21.523h5.95c2.177023 0 3.946-1.77437 3.946-3.946v-23.774c0-2.171651-1.768998-3.946-3.946-3.946zm66.826-5.516-4.783 8.285c-1.022612 1.770864-3.297925 2.378623-5.065 1.357l-3.862-2.229c-1.770864-1.022612-2.378623-3.297925-1.357-5.065 1.445-2.505 3.429-5.94 4.764-8.297.782724-1.358005-.140102-3.075848-1.702-3.174-5.808-.358-11.601 2.509-14.705 7.887-2.928 5.071-1.014 12.085 1.713 16.823l-14.307 24.781c-1.428 2.474-.581 5.638 1.894 7.067l4.751 2.743c2.475 1.429 5.639.581 7.067-1.893l14.307-24.781c5.467-.007 12.499-1.856 15.427-6.927 3.105-5.378 2.692-11.828-.504-16.692-.877413-1.320399-2.848907-1.254182-3.638.115z" fill="#fff" transform="matrix(1.01053 0 0 1.01053 -1.17895 -1.17895)"/></svg>